<svg id="visual" viewBox="0 0 900 600" width="900" height="600" xmlns="http://www.w3.org/2000/svg" xmlns:xlink="http://www.w3.org/1999/xlink" version="1.1"><rect x="0" y="0" width="900" height="600" fill="#fff"></rect><path d="M0 303L11.5 306.8C23 310.7 46 318.3 69 315.2C92 312 115 298 138.2 291.8C161.3 285.7 184.7 287.3 207.8 289.8C231 292.3 254 295.7 277 293.2C300 290.7 323 282.3 346 283.3C369 284.3 392 294.7 415.2 300C438.3 305.3 461.7 305.7 484.8 305.2C508 304.7 531 303.3 554 302.7C577 302 600 302 623 297.3C646 292.7 669 283.3 692.2 279.3C715.3 275.3 738.7 276.7 761.8 279.8C785 283 808 288 831 296C854 304 877 315 888.5 320.5L900 326L900 601L888.5 601C877 601 854 601 831 601C808 601 785 601 761.8 601C738.7 601 715.3 601 692.2 601C669 601 646 601 623 601C600 601 577 601 554 601C531 601 508 601 484.8 601C461.7 601 438.3 601 415.2 601C392 601 369 601 346 601C323 601 300 601 277 601C254 601 231 601 207.8 601C184.7 601 161.3 601 138.2 601C115 601 92 601 69 601C46 601 23 601 11.5 601L0 601Z" fill="#4F52FF" stroke-linecap="round" stroke-linejoin="miter"></path></svg>