<svg id="visual" viewBox="0 0 960 540" width="960" height="540" xmlns="http://www.w3.org/2000/svg" xmlns:xlink="http://www.w3.org/1999/xlink" version="1.1"><rect x="0" y="0" width="960" height="540" fill="#fff"></rect><path d="M0 213L22.8 235.3C45.7 257.7 91.3 302.3 137 310C182.7 317.7 228.3 288.3 274 275.2C319.7 262 365.3 265 411.2 263.2C457 261.3 503 254.7 548.8 259.5C594.7 264.3 640.3 280.7 686 274C731.7 267.3 777.3 237.7 823 223.5C868.7 209.3 914.3 210.7 937.2 211.3L960 212L960 541L937.2 541C914.3 541 868.7 541 823 541C777.3 541 731.7 541 686 541C640.3 541 594.7 541 548.8 541C503 541 457 541 411.2 541C365.3 541 319.7 541 274 541C228.3 541 182.7 541 137 541C91.3 541 45.7 541 22.8 541L0 541Z" fill="#4F52FF" stroke-linecap="round" stroke-linejoin="miter"></path></svg>