<svg id="visual" viewBox="0 0 900 600" width="900" height="600" xmlns="http://www.w3.org/2000/svg" xmlns:xlink="http://www.w3.org/1999/xlink" version="1.1"><rect x="0" y="0" width="900" height="600" fill="#fff"></rect><path d="M0 366L13.7 380.2C27.3 394.3 54.7 422.7 82 439.3C109.3 456 136.7 461 163.8 459C191 457 218 448 245.2 429.2C272.3 410.3 299.7 381.7 327 378C354.3 374.3 381.7 395.7 409 411C436.3 426.3 463.7 435.7 491 447C518.3 458.3 545.7 471.7 573 478C600.3 484.3 627.7 483.7 654.8 471.3C682 459 709 435 736.2 413.2C763.3 391.3 790.7 371.7 818 362.7C845.3 353.7 872.7 355.3 886.3 356.2L900 357L900 601L886.3 601C872.7 601 845.3 601 818 601C790.7 601 763.3 601 736.2 601C709 601 682 601 654.8 601C627.7 601 600.3 601 573 601C545.7 601 518.3 601 491 601C463.7 601 436.3 601 409 601C381.7 601 354.3 601 327 601C299.7 601 272.3 601 245.2 601C218 601 191 601 163.8 601C136.7 601 109.3 601 82 601C54.7 601 27.3 601 13.7 601L0 601Z" fill="#4f52ff"></path><path d="M0 400L13.7 403.8C27.3 407.7 54.7 415.3 82 421.7C109.3 428 136.7 433 163.8 428.5C191 424 218 410 245.2 411.8C272.3 413.7 299.7 431.3 327 427.7C354.3 424 381.7 399 409 395.2C436.3 391.3 463.7 408.7 491 425.8C518.3 443 545.7 460 573 468C600.3 476 627.7 475 654.8 460.8C682 446.7 709 419.3 736.2 419.5C763.3 419.7 790.7 447.3 818 464.5C845.3 481.7 872.7 488.3 886.3 491.7L900 495L900 601L886.3 601C872.7 601 845.3 601 818 601C790.7 601 763.3 601 736.2 601C709 601 682 601 654.8 601C627.7 601 600.3 601 573 601C545.7 601 518.3 601 491 601C463.7 601 436.3 601 409 601C381.7 601 354.3 601 327 601C299.7 601 272.3 601 245.2 601C218 601 191 601 163.8 601C136.7 601 109.3 601 82 601C54.7 601 27.3 601 13.7 601L0 601Z" fill="#4f63ff"></path><path d="M0 424L13.7 430C27.3 436 54.7 448 82 458.3C109.3 468.7 136.7 477.3 163.8 485.5C191 493.7 218 501.3 245.2 486.3C272.3 471.3 299.7 433.7 327 417.7C354.3 401.7 381.7 407.3 409 408.3C436.3 409.3 463.7 405.7 491 417C518.3 428.3 545.7 454.7 573 460.5C600.3 466.3 627.7 451.7 654.8 437.5C682 423.3 709 409.7 736.2 404C763.3 398.3 790.7 400.7 818 415.7C845.3 430.7 872.7 458.3 886.3 472.2L900 486L900 601L886.3 601C872.7 601 845.3 601 818 601C790.7 601 763.3 601 736.2 601C709 601 682 601 654.8 601C627.7 601 600.3 601 573 601C545.7 601 518.3 601 491 601C463.7 601 436.3 601 409 601C381.7 601 354.3 601 327 601C299.7 601 272.3 601 245.2 601C218 601 191 601 163.8 601C136.7 601 109.3 601 82 601C54.7 601 27.3 601 13.7 601L0 601Z" fill="#5372ff"></path><path d="M0 454L13.7 452C27.3 450 54.7 446 82 450.5C109.3 455 136.7 468 163.8 472.2C191 476.3 218 471.7 245.2 479.2C272.3 486.7 299.7 506.3 327 514.8C354.3 523.3 381.7 520.7 409 507.7C436.3 494.7 463.7 471.3 491 463C518.3 454.7 545.7 461.3 573 463.5C600.3 465.7 627.7 463.3 654.8 470.7C682 478 709 495 736.2 492C763.3 489 790.7 466 818 451.8C845.3 437.7 872.7 432.3 886.3 429.7L900 427L900 601L886.3 601C872.7 601 845.3 601 818 601C790.7 601 763.3 601 736.2 601C709 601 682 601 654.8 601C627.7 601 600.3 601 573 601C545.7 601 518.3 601 491 601C463.7 601 436.3 601 409 601C381.7 601 354.3 601 327 601C299.7 601 272.3 601 245.2 601C218 601 191 601 163.8 601C136.7 601 109.3 601 82 601C54.7 601 27.3 601 13.7 601L0 601Z" fill="#5b80ff"></path><path d="M0 471L13.7 475.8C27.3 480.7 54.7 490.3 82 492.8C109.3 495.3 136.7 490.7 163.8 484C191 477.3 218 468.7 245.2 472.7C272.3 476.7 299.7 493.3 327 499.5C354.3 505.7 381.7 501.3 409 499.3C436.3 497.3 463.7 497.7 491 501C518.3 504.3 545.7 510.7 573 507.3C600.3 504 627.7 491 654.8 494.2C682 497.3 709 516.7 736.2 525C763.3 533.3 790.7 530.7 818 517.8C845.3 505 872.7 482 886.3 470.5L900 459L900 601L886.3 601C872.7 601 845.3 601 818 601C790.7 601 763.3 601 736.2 601C709 601 682 601 654.8 601C627.7 601 600.3 601 573 601C545.7 601 518.3 601 491 601C463.7 601 436.3 601 409 601C381.7 601 354.3 601 327 601C299.7 601 272.3 601 245.2 601C218 601 191 601 163.8 601C136.7 601 109.3 601 82 601C54.7 601 27.3 601 13.7 601L0 601Z" fill="#668eff"></path><path d="M0 551L13.7 545.2C27.3 539.3 54.7 527.7 82 521C109.3 514.3 136.7 512.7 163.8 513.7C191 514.7 218 518.3 245.2 523C272.3 527.7 299.7 533.3 327 530.8C354.3 528.3 381.7 517.7 409 514.8C436.3 512 463.7 517 491 515.2C518.3 513.3 545.7 504.7 573 502.8C600.3 501 627.7 506 654.8 506.3C682 506.7 709 502.3 736.2 502.3C763.3 502.3 790.7 506.7 818 505.7C845.3 504.7 872.7 498.3 886.3 495.2L900 492L900 601L886.3 601C872.7 601 845.3 601 818 601C790.7 601 763.3 601 736.2 601C709 601 682 601 654.8 601C627.7 601 600.3 601 573 601C545.7 601 518.3 601 491 601C463.7 601 436.3 601 409 601C381.7 601 354.3 601 327 601C299.7 601 272.3 601 245.2 601C218 601 191 601 163.8 601C136.7 601 109.3 601 82 601C54.7 601 27.3 601 13.7 601L0 601Z" fill="#739afe"></path><path d="M0 570L13.7 565.7C27.3 561.3 54.7 552.7 82 547.8C109.3 543 136.7 542 163.8 537C191 532 218 523 245.2 521.8C272.3 520.7 299.7 527.3 327 527.7C354.3 528 381.7 522 409 522.8C436.3 523.7 463.7 531.3 491 532C518.3 532.7 545.7 526.3 573 525.2C600.3 524 627.7 528 654.8 536C682 544 709 556 736.2 556.2C763.3 556.3 790.7 544.7 818 540.5C845.3 536.3 872.7 539.7 886.3 541.3L900 543L900 601L886.3 601C872.7 601 845.3 601 818 601C790.7 601 763.3 601 736.2 601C709 601 682 601 654.8 601C627.7 601 600.3 601 573 601C545.7 601 518.3 601 491 601C463.7 601 436.3 601 409 601C381.7 601 354.3 601 327 601C299.7 601 272.3 601 245.2 601C218 601 191 601 163.8 601C136.7 601 109.3 601 82 601C54.7 601 27.3 601 13.7 601L0 601Z" fill="#81a7fc"></path><path d="M0 547L13.7 550.8C27.3 554.7 54.7 562.3 82 567C109.3 571.7 136.7 573.3 163.8 572.7C191 572 218 569 245.2 570.7C272.3 572.3 299.7 578.7 327 577.7C354.3 576.7 381.7 568.3 409 562.2C436.3 556 463.7 552 491 552C518.3 552 545.7 556 573 557.2C600.3 558.3 627.7 556.7 654.8 555.7C682 554.7 709 554.3 736.2 558.3C763.3 562.3 790.7 570.7 818 572C845.3 573.3 872.7 567.7 886.3 564.8L900 562L900 601L886.3 601C872.7 601 845.3 601 818 601C790.7 601 763.3 601 736.2 601C709 601 682 601 654.8 601C627.7 601 600.3 601 573 601C545.7 601 518.3 601 491 601C463.7 601 436.3 601 409 601C381.7 601 354.3 601 327 601C299.7 601 272.3 601 245.2 601C218 601 191 601 163.8 601C136.7 601 109.3 601 82 601C54.7 601 27.3 601 13.7 601L0 601Z" fill="#91b3fa"></path></svg>